<?xml version="1.0" encoding="utf-8"?>
<!-- Generator: Adobe Illustrator 23.0.2, SVG Export Plug-In . SVG Version: 6.00 Build 0)  -->
<svg version="1.1" id="Ebene_1" xmlns="http://www.w3.org/2000/svg" xmlns:xlink="http://www.w3.org/1999/xlink" x="0px" y="0px"
	 viewBox="0 0 120 120" style="enable-background:new 0 0 120 120;" xml:space="preserve">
<title>list</title>
<path d="M110,10v100H10V10H110 M110,3H10c-3.9,0-7,3.1-7,7v100c0,3.9,3.1,7,7,7h100c3.9,0,7-3.1,7-7V10C117,6.1,113.9,3,110,3z"/>
<polygon points="100.4,21.8 19.6,21.8 19.6,30.9 100.4,30.9 100.4,21.8 "/>
<polygon points="100.4,38.7 19.6,38.7 19.6,47.7 100.4,47.7 100.4,38.7 "/>
<polygon points="100.4,55.5 19.6,55.5 19.6,64.5 100.4,64.5 100.4,55.5 "/>
<polygon points="100.4,72.3 19.6,72.3 19.6,81.3 100.4,81.3 100.4,72.3 "/>
<polygon points="100.4,89.1 19.6,89.1 19.6,98.2 100.4,98.2 100.4,89.1 "/>
</svg>
