<?xml version="1.0" encoding="utf-8"?>
<!-- Generator: Adobe Illustrator 23.0.2, SVG Export Plug-In . SVG Version: 6.00 Build 0)  -->
<svg version="1.1" id="Ebene_1" xmlns="http://www.w3.org/2000/svg" xmlns:xlink="http://www.w3.org/1999/xlink" x="0px" y="0px"
	 viewBox="0 0 120 120" style="enable-background:new 0 0 120 120;" xml:space="preserve">
<title>tile</title>
<g>
	<path d="M110,10v100H10V10H110 M110,3H10c-3.9,0-7,3.1-7,7v100c0,3.9,3.1,7,7,7h100c3.9,0,7-3.1,7-7V10C117,6.1,113.9,3,110,3z"/>
	<g>
		<rect x="19.4" y="21.7" width="24" height="36"/>
		<rect x="48" y="21.7" width="24" height="36"/>
		<rect x="76.6" y="21.7" width="24" height="36"/>
		<rect x="19.4" y="62.3" width="24" height="36"/>
		<rect x="48" y="62.3" width="24" height="36"/>
		<rect x="76.6" y="62.3" width="24" height="36"/>
	</g>
</g>
</svg>
